<svg xmlns="http://www.w3.org/2000/svg" width="66.052" height="66" viewBox="0 0 66.052 66">
    <defs>
        <style>
            .prefix__cls-1{fill:#c46a3d}
        </style>
    </defs>
    <g id="prefix__behance-network" transform="translate(0 -.2)">
        <g id="prefix__Grupo_47" data-name="Grupo 47" transform="translate(18.333 24.295)">
            <g id="prefix__Grupo_46" data-name="Grupo 46">
                <path id="prefix__Caminho_145" d="M147.229 184.2H140v5.762h6.757c1.2 0 2.252-.314 2.252-3.09s-1.78-2.672-1.78-2.672z" class="prefix__cls-1" data-name="Caminho 145" transform="translate(-140 -184.196)"/>
            </g>
        </g>
        <g id="prefix__Grupo_49" data-name="Grupo 49" transform="translate(18.333 34.248)">
            <g id="prefix__Grupo_48" data-name="Grupo 48">
                <path id="prefix__Caminho_146" d="M147.229 260.2H140v7.333h6.81c1.048 0 3.038-.419 3.038-3.562.052-3.719-2.619-3.771-2.619-3.771z" class="prefix__cls-1" data-name="Caminho 146" transform="translate(-140 -260.2)"/>
            </g>
        </g>
        <g id="prefix__Grupo_51" data-name="Grupo 51" transform="translate(0 .2)">
            <g id="prefix__Grupo_50" data-name="Grupo 50">
                <path id="prefix__Caminho_147" d="M49.448.2h-32.9A16.588 16.588 0 0 0 0 16.752V49.7a16.577 16.577 0 0 0 16.552 16.5H49.5a16.587 16.587 0 0 0 16.552-16.552v-32.9A16.666 16.666 0 0 0 49.448.2zM38.762 21.152h11v2.619h-11zm-5.133 17.234c0 8.171-8.067 8.433-8.067 8.433H12.571V19.581H25.51c4.033 0 7.229 2.3 7.229 7.124s-3.876 5.081-3.876 5.081c5.137-.053 4.766 6.6 4.766 6.6zm19.748-.471H40.124c0 5.238 4.5 4.819 4.5 4.819 4.243 0 4.086-2.724 4.086-2.724h4.5c0 7.333-8.748 7.019-8.748 7.019-10.476 0-9.8-10.319-9.8-10.319s0-10.371 9.8-10.371c10.328-.053 8.914 11.575 8.914 11.575z" class="prefix__cls-1" data-name="Caminho 147" transform="translate(0 -.2)"/>
            </g>
        </g>
        <g id="prefix__Grupo_53" data-name="Grupo 53" transform="translate(40.071 30.109)">
            <g id="prefix__Grupo_52" data-name="Grupo 52">
                <path id="prefix__Caminho_148" d="M310.5 228.6c-3.929 0-4.5 4.138-4.5 4.138h8.381s.052-4.138-3.881-4.138z" class="prefix__cls-1" data-name="Caminho 148" transform="translate(-306 -228.6)"/>
            </g>
        </g>
    </g>
</svg>
