<svg xmlns="http://www.w3.org/2000/svg" width="65.974" height="65.922" viewBox="0 0 65.974 65.922">
    <g id="prefix__linkedin_1_" data-name="linkedin (1)" transform="translate(0 -.2)">
        <g id="prefix__Grupo_18" data-name="Grupo 18" transform="translate(0 .2)">
            <path id="prefix__Caminho_60" d="M49.389.2H16.533A16.568 16.568 0 0 0 0 16.733v32.909a16.557 16.557 0 0 0 16.533 16.48h32.909a16.568 16.568 0 0 0 16.532-16.533V16.733A16.647 16.647 0 0 0 49.389.2zM21.974 53.566h-9.417V26.36h9.417zm-4.761-31.392a4.813 4.813 0 1 1 4.813-4.813 4.868 4.868 0 0 1-4.813 4.813zm36.2 31.391h-7.9V40.381c0-3.191-.419-7.272-4.761-7.272-4.447 0-5.18 3.453-5.18 7.063v13.394h-7.843V26.36h7.325v3.662h.209c1.151-2.093 3.819-3.715 8-3.715 8.633 0 10.15 4.97 10.15 12.347v14.912z" data-name="Caminho 60" transform="translate(0 -.2)" style="fill:#c46a3d"/>
        </g>
    </g>
</svg>
