<svg xmlns="http://www.w3.org/2000/svg" xmlns:xlink="http://www.w3.org/1999/xlink" width="559.036" height="377.326" viewBox="0 0 559.036 377.326"><defs><filter id="a" x="0.242" y="0" width="558.794" height="340.091" filterUnits="userSpaceOnUse"><feOffset dy="3" input="SourceAlpha"/><feGaussianBlur stdDeviation="3" result="b"/><feFlood flood-opacity="0.161"/><feComposite operator="in" in2="b"/><feComposite in="SourceGraphic"/></filter><filter id="c" x="0" y="31.221" width="107.065" height="205.846" filterUnits="userSpaceOnUse"><feOffset dy="3" input="SourceAlpha"/><feGaussianBlur stdDeviation="3" result="d"/><feFlood flood-opacity="0.161"/><feComposite operator="in" in2="d"/><feComposite in="SourceGraphic"/></filter><filter id="e" x="9.716" y="41.747" width="35.813" height="35.813" filterUnits="userSpaceOnUse"><feOffset dy="3" input="SourceAlpha"/><feGaussianBlur stdDeviation="3" result="f"/><feFlood flood-opacity="0.161"/><feComposite operator="in" in2="f"/><feComposite in="SourceGraphic"/></filter><filter id="g" x="60.726" y="198.016" width="25.287" height="25.287" filterUnits="userSpaceOnUse"><feOffset dy="3" input="SourceAlpha"/><feGaussianBlur stdDeviation="3" result="h"/><feFlood flood-opacity="0.161"/><feComposite operator="in" in2="h"/><feComposite in="SourceGraphic"/></filter><filter id="i" x="41.294" y="198.016" width="25.287" height="25.287" filterUnits="userSpaceOnUse"><feOffset dy="3" input="SourceAlpha"/><feGaussianBlur stdDeviation="3" result="j"/><feFlood flood-opacity="0.161"/><feComposite operator="in" in2="j"/><feComposite in="SourceGraphic"/></filter><filter id="k" x="21.052" y="198.016" width="26.097" height="25.287" filterUnits="userSpaceOnUse"><feOffset dy="3" input="SourceAlpha"/><feGaussianBlur stdDeviation="3" result="l"/><feFlood flood-opacity="0.161"/><feComposite operator="in" in2="l"/><feComposite in="SourceGraphic"/></filter><filter id="m" x="111.736" y="56.321" width="123.259" height="138.642" filterUnits="userSpaceOnUse"><feOffset dy="3" input="SourceAlpha"/><feGaussianBlur stdDeviation="3" result="n"/><feFlood flood-opacity="0.161"/><feComposite operator="in" in2="n"/><feComposite in="SourceGraphic"/></filter><filter id="o" x="111.736" y="137.29" width="123.259" height="57.674" filterUnits="userSpaceOnUse"><feOffset dy="3" input="SourceAlpha"/><feGaussianBlur stdDeviation="3" result="p"/><feFlood flood-opacity="0.161"/><feComposite operator="in" in2="p"/><feComposite in="SourceGraphic"/></filter><filter id="q" x="229.365" y="43.722" width="153.91" height="163.735" filterUnits="userSpaceOnUse"><feOffset dy="3" input="SourceAlpha"/><feGaussianBlur stdDeviation="3" result="r"/><feFlood flood-opacity="0.161"/><feComposite operator="in" in2="r"/><feComposite in="SourceGraphic"/></filter><filter id="s" x="378.121" y="58.75" width="123.259" height="137.833" filterUnits="userSpaceOnUse"><feOffset dy="3" input="SourceAlpha"/><feGaussianBlur stdDeviation="3" result="t"/><feFlood flood-opacity="0.161"/><feComposite operator="in" in2="t"/><feComposite in="SourceGraphic"/></filter><filter id="u" x="183.798" y="126.764" width="39.861" height="39.861" filterUnits="userSpaceOnUse"><feOffset dy="3" input="SourceAlpha"/><feGaussianBlur stdDeviation="3" result="v"/><feFlood flood-opacity="0.161"/><feComposite operator="in" in2="v"/><feComposite in="SourceGraphic"/></filter></defs><g transform="translate(-689 -986.266)"><g transform="translate(698 1295.54)" fill="#8a7785" stroke="#707070" stroke-width="1"><path d="M0,0H540.867a0,0,0,0,1,0,0V0a18.623,18.623,0,0,1-18.623,18.623H18.623A18.623,18.623,0,0,1,0,0V0A0,0,0,0,1,0,0Z" stroke="none"/><path d="M.784.5h539.3a.284.284,0,0,1,.284.284v0a17.338,17.338,0,0,1-17.338,17.338H17.838A17.338,17.338,0,0,1,.5.784v0A.284.284,0,0,1,.784.5Z" fill="none"/></g><g transform="matrix(1, 0, 0, 1, 689, 986.27)" filter="url(#a)"><path d="M17.61,0H523.184a17.61,17.61,0,0,1,17.61,17.61V304.481a17.61,17.61,0,0,1-17.61,17.61H17.61A17.61,17.61,0,0,1,0,304.481V17.61A17.61,17.61,0,0,1,17.61,0Z" transform="translate(9.24 6)" fill="#f4e4c4"/></g><g transform="matrix(1, 0, 0, 1, 689, 986.27)" filter="url(#c)"><path d="M0,0H58.065a31,31,0,0,1,31,31V156.846a31,31,0,0,1-31,31H0a0,0,0,0,1,0,0V0A0,0,0,0,1,0,0Z" transform="translate(9 37.22)" fill="#474252"/></g><rect width="67.204" height="12.955" rx="6.477" transform="translate(705.287 1072.878)" fill="#ff833d"/><g transform="translate(707.716 1034.013)"><g transform="matrix(1, 0, 0, 1, -18.72, -47.75)" filter="url(#e)"><circle cx="8.906" cy="8.906" r="8.906" transform="translate(18.72 47.75)" fill="#fafafa"/></g><rect width="38.055" height="3.239" rx="1.619" transform="translate(24.29 7.287)" fill="#fafafa"/><rect width="45.342" height="4.048" rx="2.024" transform="translate(7.287 42.913)" fill="#fafafa"/><rect width="45.342" height="4.048" rx="2.024" transform="translate(7.287 59.107)" fill="#fafafa"/><rect width="45.342" height="4.048" rx="2.024" transform="translate(7.287 76.92)" fill="#fafafa"/><g transform="matrix(1, 0, 0, 1, -18.72, -47.75)" filter="url(#g)"><rect width="7.287" height="7.287" rx="3.644" transform="translate(69.73 204.02)" fill="#fafafa"/></g><g transform="matrix(1, 0, 0, 1, -18.72, -47.75)" filter="url(#i)"><rect width="7.287" height="7.287" rx="3.644" transform="translate(50.29 204.02)" fill="#fafafa"/></g><g transform="matrix(1, 0, 0, 1, -18.72, -47.75)" filter="url(#k)"><rect width="8.097" height="7.287" rx="3.644" transform="translate(30.05 204.02)" fill="#fafafa"/></g></g><g transform="matrix(1, 0, 0, 1, 689, 986.27)" filter="url(#m)"><rect width="105.259" height="120.642" rx="31" transform="translate(120.74 62.32)" fill="#474252"/></g><g transform="matrix(1, 0, 0, 1, 689, 986.27)" filter="url(#o)"><path d="M0,0H105.259a0,0,0,0,1,0,0V8.674a31,31,0,0,1-31,31H31a31,31,0,0,1-31-31V0A0,0,0,0,1,0,0Z" transform="translate(120.74 143.29)" fill="#fff"/></g><g transform="matrix(1, 0, 0, 1, 689, 986.27)" filter="url(#q)"><rect width="105.379" height="120.176" rx="31" transform="translate(273.5 49.72) rotate(17)" fill="#ff833d"/></g><g transform="matrix(1, 0, 0, 1, 689, 986.27)" filter="url(#s)"><rect width="105.259" height="119.833" rx="31" transform="translate(387.12 64.75)" fill="#474252"/></g><path d="M-2172.675,2149.464c-3.685-1.579-6.459-1.565-9.925-1.346s-2.194.325-2.41.225-5.213,1.648-6.266,7.438.307,8.028-1.228,16.846c-1.1,6.3-3.215,8.827-4.825,12.9a19.816,19.816,0,0,0-1.161,4.839,19.073,19.073,0,0,0,2.3,12.269l1.755,11.933,5,11.058s-4.562,4.91-3.948,14.035,2.457,20.355,2.457,20.355a18.163,18.163,0,0,1,0,3.159c-.175.877,8.774,0,8.774,0l-6.737-2.716,4.631-29.046s1.316-7.765,2.105-15.267,1.053-14.74,1.053-14.74l16.974,3.4a32.31,32.31,0,0,0-2.656,12.191c-.356,7.683-.982,16.572-.982,16.572v4.394l5.264,1.693-5.264-2.983,6.141-20.531s2.365-7.706,2.584-12.488-5.088-7.995-5.088-7.995l-11.008-6.541a25.251,25.251,0,0,1-.644-4.412,20.107,20.107,0,0,1,.644-6.644c1.536-5.44,6.142-10.7,6.142-10.7s1.685,2.9,3.527,6.317c1.133,2.1,3.24,5.5,5.142,6.442.936.469,5.928-.714,5.928-.714l11.548-3.271h2.808l2.632-2.457-15.883.525-3.962.131-6.125-17.151S-2168.989,2151.043-2172.675,2149.464Z" transform="translate(3163.875 -996.148)" fill="#e0c5a7"/><path d="M-2176.376,2174.848a16.136,16.136,0,0,0-5.606,0c-3.063.545-5.348,2.492-9.242,2.7a9.566,9.566,0,0,1-6.333-1.869" transform="translate(3164.288 -986.13)" fill="none" stroke="#707070" stroke-width="1"/><path d="M-2184.325,2152.02l1.51-4.082s-2.284-5.478-1.038-8.307,3.479-3.011,6.023-3.011,3.115.986,4.153,3.011-.553,3.969,0,5.088-1.038,5.711-1.038,5.711l-3.115.831-.75,2.25Z" transform="translate(3169.273 -1000.441)" fill="#ffd6a0"/><g transform="translate(932.517 1243.042)"><g transform="translate(32.872 1.175)"><path d="M-2186.306,2215.063l30.526.029-43.164,118.49" transform="translate(2198.944 -2215.063)" fill="none" stroke="#c46a3d" stroke-width="5"/></g><path d="M-2167.041,2212.994l-.848,118.3" transform="translate(2243.517 -2212.994)" fill="none" stroke="#c46a3d" stroke-width="5"/><path d="M-2183.5,2220l-39.322,109.194" transform="translate(2222.821 -2210.344)" fill="none" stroke="#c46a3d" stroke-width="5"/><path d="M-2182.938,2281.257h-32.988" transform="translate(2225.419 -2188.99)" fill="none" stroke="#c46a3d" stroke-width="5"/><path d="M-2176.732,2264.709h-32.988" transform="translate(2227.756 -2195.225)" fill="none" stroke="#c46a3d" stroke-width="5"/><path d="M-2170.569,2248.505h-33.462" transform="translate(2229.9 -2201.329)" fill="none" stroke="#c46a3d" stroke-width="5"/><path d="M-2168.994,2231.943h-17.8" transform="translate(2236.394 -2207.569)" fill="none" stroke="#c46a3d" stroke-width="5"/><path d="M-2181.024,2231.943h-17.664" transform="translate(2231.913 -2207.569)" fill="none" stroke="#c46a3d" stroke-width="5"/></g><path d="M-2175.832,2144.333s-.25-2.014.967-2.877,3.9-.575,3.9-.575,1.662-.751,1.662-2.045a3.384,3.384,0,0,0-1.662-3.132,10.2,10.2,0,0,0-3.643-1.534,10.744,10.744,0,0,0-4.6.319,11.615,11.615,0,0,0-3.643,2.557,12.707,12.707,0,0,0-1.982,4.41c-.559,2.525.607,3.707,0,6.073a5.678,5.678,0,0,1-2.429,3.387l-2.876,3.26a5.432,5.432,0,0,0-1.79,2.749,12.09,12.09,0,0,0,0,4.218l.639,3.068,2.365.256,2.173.895a18.118,18.118,0,0,0,3.643,1.214,8.679,8.679,0,0,0,3.068,0l.831-7.095.256-6.456a12.416,12.416,0,0,0,.895-4.027c0-1.885-.99-2.237-.895-3.515s.5-1.518,1.278-1.6,1.846,1.279,1.846,1.279Z" transform="translate(3166.333 -1001.408)" fill="#8a7785"/><path d="M-2158.074,2166.656v2.457h2.812l2.6-2.457" transform="translate(3179.164 -989.124)" fill="#ffd6a0"/><path d="M-2188.571,2250.7v-.308l-2.326.1s-3.21-9.339-3.656-16.066a24.2,24.2,0,0,1,1.757-11.259l-1.1-13.093-2.429-17.278s-2.43-5.129-2.43-9.449a21.108,21.108,0,0,1,1.948-8.26,10.449,10.449,0,0,0,6.826,2.185c3.914-.27,5.4-2.227,9.314-2.835s4.35-.329,4.35-.329l2.032,4.7a114.983,114.983,0,0,1,11.165,6.7c3.78,2.8,7.661,5.212,8.14,7.289s-2.652,8.415-2.652,8.415l-3.264,8.863s-1.683,4.734-3.06,8.884-2.4,7.054-2.4,7.054h-2.906a78.967,78.967,0,0,0,.7-10.376c0-2.8-.8-6.142-.7-8.918.27-7.8,3.264-10.2,3.264-10.2l-15.482-3.723s.16-.026.16,0c0,0-.059,10.975-.7,18.223s-2.025,10.8-2.025,10.8l-3.1,16.6Z" transform="translate(3163.838 -986.337)" fill="#13111d" stroke="#13111d" stroke-width="1"/><path d="M-2183.16,2232.741h-9.864v-2.918h2.491l7.67,2.917" transform="translate(3165.996 -965.326)" fill="#8a7785" stroke="#8a7785" stroke-width="1"/><path d="M-2176.863,2211.943l-.122,3.025h9.2l-6.122-3.025h-3.251" transform="translate(3171.458 -971.982)" fill="#8a7785" stroke="#8a7785" stroke-width="1"/><path d="M-2173.314,2149.619l1.038-2.668,2.181,5.192-1.454,3.738-1.765,1.558-2-1.89,2-2.264Z" transform="translate(3173.585 -996.549)" fill="#ffd6a0"/><g transform="matrix(1, 0, 0, 1, 689, 986.27)" filter="url(#u)"><circle cx="10.931" cy="10.931" r="10.931" transform="translate(192.8 132.76)" fill="#fff"/></g><rect width="62.345" height="4.048" rx="2.024" transform="translate(830.788 1145.749)" fill="#e0c5a7"/><rect width="62.345" height="4.048" rx="2.024" transform="translate(830.788 1153.846)" fill="#e0c5a7"/><path d="M4.828,11.929V7.1H0V4.828H4.828V0H7.1V4.828h4.828V7.1H7.1v4.828Z" transform="translate(887.123 1124.056)" fill="#c46a3d"/><g transform="translate(1102.031 1085.023)"><g transform="translate(8.906)" fill="#e0c5a7"><path d="M 41.23705673217773 35.93563842773438 L 0.8663466572761536 35.93563842773438 L 21.05170249938965 0.9994412660598755 L 41.23705673217773 35.93563842773438 Z" stroke="none"/><path d="M 21.05170249938965 1.9989013671875 L 1.732700347900391 35.43563842773438 L 40.37070465087891 35.43563842773438 L 21.05170249938965 1.9989013671875 M 21.05170249938965 0 L 42.10340118408203 36.43563842773438 L 3.814697265625e-06 36.43563842773438 L 21.05170249938965 0 Z" stroke="none" fill="#474252"/></g><g transform="translate(0 8.906)" fill="#e0c5a7"><path d="M 37.19210052490234 32.69691848754883 L 0.8628986477851868 32.69691848754883 L 19.02750015258789 1.005480051040649 L 37.19210052490234 32.69691848754883 Z" stroke="none"/><path d="M 19.02750015258789 2.010944366455078 L 1.725788116455078 32.19691848754883 L 36.3292121887207 32.19691848754883 L 19.02750015258789 2.010944366455078 M 19.02750015258789 -3.814697265625e-06 L 38.05500030517578 33.19691848754883 L 0 33.19691848754883 L 19.02750015258789 -3.814697265625e-06 Z" stroke="none" fill="#474252"/></g></g><g transform="translate(716.623 1000.007)"><circle cx="4.858" cy="4.858" r="4.858" fill="#e45959"/><ellipse cx="4.453" cy="4.858" rx="4.453" ry="4.858" transform="translate(34.816)" fill="#78c45d"/><circle cx="4.858" cy="4.858" r="4.858" transform="translate(17.003)" fill="#f6bd38"/></g></g></svg>