<svg xmlns="http://www.w3.org/2000/svg" width="239.511" height="353.499" viewBox="0 0 239.511 353.499"><g transform="translate(-1077.251 -857.663)"><path d="M1734.711,1538.415c2.968-27.376,31.333-.33,48.814-11.874s10.554-25.726,21.109-34.3,19.79-3.782,26.386,4.793-12.863,19.567-8.575,31.891,18.064,8.124,11.468,18.348-23.672,6.974-29.279,20.168,45.579-.87,21.109,31.663-23.418-9.235-36.941,0-3.628,52.113-17.151,36.94S1731.742,1565.79,1734.711,1538.415Z" transform="translate(-522.438 -492.775)" fill="#13111d"/><path d="M1827.555,1677.859c15.013,9.008,20.4,8.262,20.4,15.768s-12.06,6.317-15.663,12.172,26.953,9.1,14.516,16.211-3.3,29.9-19.256,19.819-4.992,12.061-10.263,12.061-9.714-10.77-16.319-3.264,1.747,32.488-10.113,24.831-31.827-64.254-31.827-64.254,15.913-43.386,34.229-52.244S1812.543,1668.852,1827.555,1677.859Z" transform="translate(-533.044 -565.737)" fill="#8a7785"/><path d="M97.145,58.351s4.684-22.257-3.9-33.319S90.56,0,75.338,0,47.769,26.593,32.351,25.032,12.908-18.573,4.027,11.851,30.2,48.33,30.2,65.5,5.028,64.588,1.125,76.555s3.513,16,4.684,29.665-11.319,10.148,0,24.981,21.468,38.642,45.278,34.349,38.447-24.724,49.962-51.523S97.145,58.351,97.145,58.351Z" transform="matrix(0.899, 0.438, -0.438, 0.899, 1150.047, 857.663)" fill="#e0c5a7"/><path d="M1691.155,1460.665c-24.981-7.026-24.2-20.382-24.2-39.927s20.3-22.834,24.2-38.252-9.368-24.59-5.465-32.787,9.173-17.174,28.1-19.516,29.47,32.592,44.5,42.155,20.492,17.37,16.394,28.1-14.442,8.2-16.394,20.3,16.784,29.945,0,39.927S1716.136,1467.691,1691.155,1460.665Z" transform="translate(-492.702 -413.884)" fill="#ff833d"/></g></svg>