<svg xmlns="http://www.w3.org/2000/svg" xmlns:xlink="http://www.w3.org/1999/xlink" width="1034.059" height="1067" viewBox="0 0 1034.059 1067"><defs><filter id="a" x="0" y="0" width="978.82" height="1000.869" filterUnits="userSpaceOnUse"><feOffset dx="10" dy="6" input="SourceAlpha"/><feGaussianBlur stdDeviation="3" result="b"/><feFlood flood-opacity="0.161"/><feComposite operator="in" in2="b"/><feComposite in="SourceGraphic"/></filter></defs><g transform="translate(0.059 3)"><g transform="matrix(1, 0, 0, 1, -0.06, -3)" filter="url(#a)"><path d="M3060.857,1839.869,3248.2,1718.94s75.785-40.176,61.855-84.781-73.957-28.047-107.115-82.451,16.039-117.086-36.347-153.243-103-2.847-163.865-137.142S2977.161,857,2922.021,857s-320.915.459-320.915.459L2351.941,857s.451,759.336,0,873.9c0,0,13.81,46.022,47.229,73.457s86.9,35.516,86.9,35.516" transform="translate(-2351.94 -854)" fill="#474252"/></g><g transform="translate(-51 -128)"><rect width="1034" height="107" transform="translate(51 1085)" fill="#fff"/><path d="M2733.44,1685.3s2.192-11.643-1.825-15.142-7.882-5.244-11.7-2.112-6.96,12.529-6.96,12.529l-.814,1.466s.647,10.946,2.591,16.069,7.433,3.533,7.433,3.533-.6,4.241-4.537,11.978c-3.563,7-9.995,17.378-9.995,17.378s-.784,1.153-1.358,1.986c-6.047,8.77-1.546,8.041,2.595,14.942s14.109,12.269,14.109,12.269a56.483,56.483,0,0,0,13.006,4.294c6.364,1.073,7.421,1.457,12.451,0s6.034-2.989,8.212-5.134c.88-.867.116-3.1.817-5.5a20.5,20.5,0,0,1,2.728-5.2l3.272,1.725s4.632,2.33,9.156,1.716,12.268-10.8,15.062-12.887,3.291-3.125,5.9-6.882,1.247-1.96,4.544-6.484,4.756-6.587,8.36-10.881,11.27-14.04,14.336-22.551,7.131-23.617,6.134-32.205-6.134-19.937-6.134-19.937l-8.443-11.9-11.325-11.561-9.909-8.022a66.119,66.119,0,0,0-16.751-8.965c-8.818-2.914-9.913-3.634-19.515-1.88s-18.892,8.895-18.892,8.895a76.334,76.334,0,0,0-13.006,11.042c-5.313,5.981-6.5,6.321-10.023,12.379s-3.018,6.323-5.1,13.684-1.442,16.263-1.442,16.263l6.056,23.811" transform="translate(-2224.691 -857.553)" fill="#f4e4c4" stroke="#f4e4c4" stroke-width="1"/><g transform="translate(334.573 890.587)"><path d="M28.009,17.555c8.83-1.936,9.222-4.932,9.815-8.483s-2.607-6.141-2.607-6.141S32.971.555,26.3.23,15.195-.274,8.993,1.1s-5.625,2.163-7.5,4.615S-.058,9.281.2,12.057A8.422,8.422,0,0,0,2.5,16.817S19.178,19.491,28.009,17.555Z" transform="matrix(0.921, 0.391, -0.391, 0.921, 172.78, 201.619)" fill="#8a7785" stroke="#8a7785" stroke-width="1"/><path d="M2675.868,1705.147c-19.786,4.319-17.736,5.839-22.641,11.055s-20.245,39.718-33.741,72.689-14.816,37.567-23,59.809-6,18.521-8.588,30.365,2.454,25.457,2.454,25.457l12.637,1.968s21,7.772,50.242,10.363,70.85.586,70.85.586a26.167,26.167,0,0,0,9.633,5.724c6.028,2.022,14.479,2.366,14.479,2.366l4.385.762,11.609,4.093s5.379,7.344,7.059,8.018-1.246-2.3-1.246-2.3l-3.853-7.1-6.7-5.115-4.836-3.887,13.524,7s5.361,8.454,7.257,9.33-.342-1.138-.924-3.022c-.945-3.059-2.645-8.423-3.223-9.418-.853-1.468-13.7-8.62-13.7-8.62l15.334,4.256s9.519,6.384,11.846,7.475-2.537-3.11-2.537-3.11l-6-6.433-15.587-7.391,14.794,3.874s10.413,9.827,11.747,9.344-2.417-2.828-2.417-2.828l-6.75-9.25L2763.9,1905.7s-4.5-.105-11.3.14-24.524-3.449-24.524-3.449-5.226-2.513-17.79-5.521-20.55-5.214-20.55-5.214l-19.323-4.907-26.684-7.681-14.723-3.361,11.5-23.991,12.713-26.675,16.936-29.649,11.456-22.237s35.757-8.488,35.4-15.591c-.54-10.8-6.206-26.205-8.349-36.479-3.417-16.386-40.724-13.475-40.724-13.475" transform="translate(-2587.155 -1705.147)" fill="#f4e4c4"/></g><g transform="translate(534.699 976.307)"><g transform="translate(147.026 -16.349)" fill="#8a7785"><path d="M 115.9902648925781 165.2070770263672 C 81.54067993164063 165.2070770263672 41.99047470092773 164.9278717041016 10.19343280792236 164.4601593017578 C -5.268692016601563 164.2327423095703 -18.30160903930664 163.9685363769531 -27.49631690979004 163.6960754394531 C -37.56229782104492 163.3978424072266 -41.25867080688477 163.1416168212891 -42.59756469726563 162.9819793701172 C -41.75452423095703 161.8072967529297 -40.15769958496094 158.6181335449219 -36.44719314575195 149.5099945068359 C -33.07989883422852 141.2442932128906 -28.81277465820313 130.1906280517578 -23.87181663513184 117.3915405273438 C -15.702317237854 96.22911834716797 -6.442817211151123 72.2431640625 1.908432841300964 52.70512008666992 C 6.47030782699585 42.03241348266602 10.21526622772217 33.95682907104492 13.35734939575195 28.01691246032715 C 15.07755756378174 24.76487159729004 16.61493301391602 22.17116355895996 17.92672538757324 20.30778884887695 C 19.2793083190918 18.38649749755859 20.40810012817383 17.20724678039551 21.28168296813965 16.80287170410156 C 24.19780731201172 15.45295524597168 41.16543197631836 14.24833011627197 69.05897521972656 13.4108715057373 C 94.23297119140625 12.65503787994385 127.8248062133789 12.22157955169678 161.2213134765625 12.22157955169678 C 193.5323944091797 12.22157955169678 223.3312225341797 12.61770534515381 245.1285552978516 13.33699703216553 C 256.9615173339844 13.72749614715576 266.310302734375 14.20658016204834 272.9152526855469 14.76103782653809 C 276.3803100585938 15.05187129974365 279.1050720214844 15.36582946777344 281.0137939453125 15.69420528411865 C 283.6983947753906 16.15600776672363 284.1027526855469 16.53884887695313 284.1485290527344 16.5942268371582 C 284.2069702148438 16.70862770080566 284.3524780273438 17.19560432434082 284.0208129882813 18.92520523071289 C 283.7710571289063 20.22762107849121 283.2960510253906 21.99991416931152 282.6091003417969 24.19282913208008 C 281.3043823242188 28.35766410827637 279.2218017578125 34.09103775024414 276.4192199707031 41.23361968994141 C 271.3810729980469 54.07378768920898 263.9819030761719 71.52174377441406 255.5847320556641 90.36337280273438 C 247.7312316894531 107.9850387573242 239.4793853759766 125.7497024536133 232.9450531005859 139.1023254394531 C 223.1461791992188 159.1258697509766 220.6211853027344 162.3432006835938 219.9903869628906 162.7970428466797 C 219.9293975830078 162.8409576416016 219.5095520019531 163.0734558105469 217.2288513183594 163.3412017822266 C 215.6224670410156 163.52978515625 213.3549346923828 163.7076263427734 210.4891815185547 163.8697814941406 C 205.040771484375 164.1780395507813 197.2910614013672 164.4384613037109 187.4553070068359 164.6437835693359 C 169.8036346435547 165.0122833251953 145.0914306640625 165.2070770263672 115.9902648925781 165.2070770263672 Z" stroke="none"/><path d="M 161.2212677001953 12.72157287597656 C 127.8295593261719 12.72157287597656 94.24313354492188 13.15495300292969 69.073974609375 13.91061401367188 C 55.5635986328125 14.31625366210938 44.62831115722656 14.80354309082031 36.57185363769531 15.35891723632813 C 25.90821838378906 16.093994140625 22.4853515625 16.79661560058594 21.49168395996094 17.25662231445313 C 20.94656372070313 17.50895690917969 19.95651245117188 18.29307556152344 18.33555603027344 20.59562683105469 C 17.035888671875 22.44174194335938 15.50968933105469 25.01728820800781 13.79930114746094 28.25070190429688 C 10.66372680664063 34.17828369140625 6.924606323242188 42.24166870117188 2.368179321289063 52.90158081054688 C -5.979568481445313 72.43145751953125 -15.23736572265625 96.41299438476563 -23.40534973144531 117.5714950561523 C -28.34718322753906 130.3729095458984 -32.61515808105469 141.4286193847656 -35.98420715332031 149.6986236572266 C -39.11012268066406 157.371826171875 -40.74943542480469 160.8957672119141 -41.74012756347656 162.5671081542969 C -39.93400573730469 162.7240447998047 -35.91764831542969 162.9500427246094 -27.02363586425781 163.2097930908203 C -17.76460266113281 163.4802093505859 -4.7227783203125 163.7421569824219 10.69194030761719 163.9674072265625 C 42.389892578125 164.4305725097656 81.75396728515625 164.7070770263672 115.9908905029297 164.7070770263672 C 144.7877655029297 164.7070770263672 169.3127136230469 164.5161285400391 186.914306640625 164.1549072265625 C 196.7107238769531 163.9538726806641 204.4722595214844 163.6989135742188 209.9833068847656 163.3971557617188 C 212.8753051757813 163.2388305664063 215.1844787597656 163.0653228759766 216.8466796875 162.8815002441406 C 219.0633239746094 162.6363830566406 219.6073760986328 162.4306640625 219.7153778076172 162.37841796875 C 219.9607238769531 162.1871643066406 220.9374389648438 161.1406555175781 224.0241851806641 155.4879608154297 C 226.2093505859375 151.486328125 229.0246887207031 145.9709167480469 232.3919677734375 139.0948791503906 C 238.8656005859375 125.8757019042969 247.061767578125 108.2432022094727 254.8788909912109 90.71858215332031 C 263.2266540527344 72.00428771972656 270.6200256347656 54.59732818603516 275.697021484375 41.70416259765625 C 278.5158081054688 34.54586791992188 280.6294860839844 28.76641845703125 281.9794006347656 24.5263671875 C 282.6869812011719 22.30390930175781 283.1874389648438 20.49357604980469 283.4668884277344 19.14566040039063 C 283.7658386230469 17.703857421875 283.7464904785156 17.11146545410156 283.7161865234375 16.90084838867188 C 283.4834594726563 16.77716064453125 282.7095336914063 16.46524047851563 280.3870239257813 16.09757995605469 C 278.3775024414063 15.77949523925781 275.5776062011719 15.47512817382813 272.0650024414063 15.19291687011719 C 265.3504333496094 14.65345764160156 255.9823455810547 14.1873779296875 244.2210540771484 13.80766296386719 C 222.5278015136719 13.10728454589844 193.05126953125 12.72157287597656 161.2212677001953 12.72157287597656 M 161.2212829589844 11.72157287597656 C 223.3221435546875 11.72157287597656 282.8625793457031 13.18965148925781 284.58447265625 16.34912109375 C 288.1201782226563 22.83674621582031 226.3679351806641 158.8242797851563 220.2823944091797 163.2029113769531 C 217.7299194335938 165.0394439697266 170.0884552001953 165.7070617675781 115.9908981323242 165.7070617675781 C 41.11082458496094 165.7070617675781 -46.15669250488281 164.4290161132813 -43.50343322753906 163.2029113769531 C -38.93330383300781 161.0909576416016 8.446975708007813 22.19325256347656 21.07159423828125 16.34912109375 C 27.54808044433594 13.35108947753906 95.80485534667969 11.72157287597656 161.2212829589844 11.72157287597656 Z" stroke="none" fill="#8a7785"/></g><path d="M2878.878,1860.89s-99.531-16.648-99.1-18.607,108.756-3.122,108.756-3.122Z" transform="translate(-2774.704 -1714.486)" fill="#707070" stroke="#707070" stroke-width="1"/></g><path d="M2715.944,1692.432c-3.437,6.98-22.414,11.563-22.414,11.563l-12.995,17,29.138,32.205,54.6,18.4,14.416-21.777,1.534-23.924-13.5-8.588" transform="translate(-2234.356 -817.103)" fill="#f4e4c4" stroke="#f4e4c4" stroke-width="1"/><path d="M2787.243,1718.791s13.129,2.21,23.611,15.2,8.6,14.214,18.317,34.329,12.307,24.195,20.556,46.133,12.769,26.837,17.025,45.616,2.758,29.013,1.175,30.01-11.561,1.652-11.561,1.652a252.506,252.506,0,0,1-27,5.594c-15.018,2.261-19.457,1.87-37.443,2.493s-44.019.3-44.019.3l-10.265-3.631a131.131,131.131,0,0,1-16.456,0,145.645,145.645,0,0,1-16.819-2.359l-5.142-2.178,5.142-2.567,33.275-3.5,15.945-3.684s11.009-2.455,20.976-5.063,30.456-7.991,39.566-10.583a93.274,93.274,0,0,1,17.223-3.134s-3.008-5.485-7.314-13.684-20.293-40.347-20.293-40.347l-15.769-32.685-9.54-5.94" transform="translate(-2226.433 -805.929)" fill="#f4e4c4" stroke="#f4e4c4" stroke-width="1"/><path d="M2706.655,1700.394s-22.255,1.869-33.167,3.4-10.481,2.732-10.481,2.732a16.339,16.339,0,0,1,8.729,9.184,118.262,118.262,0,0,1,6.008,18.693c2.859,11.139,2.409,12.859,4.355,23.594s.009,15-2.582,21.3-9.946,8.636-9.946,8.636l-5.9,11.119-8.509,14.813-5.979,10.795s2.872,8.249,5.562,19.321,4.273,14.239,4.863,23.617a124.976,124.976,0,0,1,.05,16.109l60.477,15.936a25.63,25.63,0,0,1,6.229-3.222c3-.907,2.752-.658,2.752-.658l29.681-3.076,10.6-2.4,26.173-6.314s-1.358-5.331-.062-16.374,5.187-28.124,5.187-28.124a75.936,75.936,0,0,0,11.958-15.431c4.984-8.772,3.811-21.14,0-28.218s-2.65-2.427-3.847-15.455,0-30.2,0-30.2v-23.542l-15.572-5.242s-3.712,10.65-12.086,16.033-9.464,6.556-19.133,7.154-20.734-3.987-20.734-3.987-9.569-2.99-16.348-8.373-7.078-7.277-10.766-13.158-3.176-5.309-5.056-9.976a42.169,42.169,0,0,1-2.464-8.69" transform="translate(-2247.787 -813.727)" fill="#c46a3d" stroke="#c46a3d" stroke-width="1"/><path d="M503.724,845.882a34.4,34.4,0,0,0,2.068,11.226,35.772,35.772,0,0,0,5.476,10.328c1.882,2.555,4.864,5.921,10.772,11.829s13.885,13,13.885,13" fill="none" stroke="#e0c5a7" stroke-width="1"/><path d="M2805.185,1644.023c-25.4,14.016-35.479,10.512-52.561,22.776-6,4.3-8.871,7.159-10.854,12.5-3.366,9.063-2.872,21.689-8.474,34.909-8.632,20.371-12.988,20.908-15.2,34.069-3.531,21.023,4.634,31.678,4.634,31.678s-12.931-11.557-10.885-33.111c1.076-11.337,9.235-24.2,13.9-34.923,3.973-9.13,6.715-28.892,7.55-37.619s-2.382-10.274-2.382-10.274l79.523-36.994,12.129,10.782s6.836,8.485,6.836,19.435-2.87,14.445-4.386,24.721-4.553,18.156-6.237,29.948-9.75,14.818-11.434,29.094,3.092,36.011,3.092,36.011-8.9-23.368-8.9-37.644,5.855-13.862,9.428-27.461,3.852-18.512,4.863-26.935,4.672-13.506,2.011-23.748S2805.185,1644.023,2805.185,1644.023Z" transform="translate(-2221.454 -844.822)" fill="#13111d" stroke="#13111d" stroke-width="1"/><path d="M2841.094,1641.218l-23.31-27.077-31.9-20.55a73.549,73.549,0,0,0-18.4,5.216,85.177,85.177,0,0,0-16.873,10.733,138.432,138.432,0,0,0-14.719,18.712,121.856,121.856,0,0,0-10.125,20.548,76.669,76.669,0,0,0-4.908,19.323c-1.227,10.74.65,12.462-1.623,23.762s-.9,9.776-7.55,19.378-7.318,9.948-16.751,16.012-12.481,5.926-20.9,10.306a50.844,50.844,0,0,0-13.477,10.108s-6.739,4.717-12.8,15.5-12.4,31.83-12.4,31.83l12.4-25.765,6.506-9.169,4.719-5.263,8.53-4.174,10.889-2.957,13.612-1.58,16.7-.726,8.167-1.815a51.032,51.032,0,0,0,9.074-2.9,46.7,46.7,0,0,0,7.985-4.719l6.533-10.163s5.082-8.757,7.8-14.519,3.085-8.53,3.085-8.53-2.178,1.679-4.174,1.089-2.623-2.891-2.979-3.958-1.9-5.849-1.9-5.849a24.138,24.138,0,0,1-.38-12.083c1.588-6,6.352-12.277,6.352-12.277a7.775,7.775,0,0,1,4.513-1.727,13.5,13.5,0,0,1,5.5,1.727,12.925,12.925,0,0,1,2.813,3.308,20.46,20.46,0,0,1,1.788,4.667Z" transform="translate(-2253.51 -859)" fill="#13111d" stroke="#13111d" stroke-width="1"/><path d="M2742.4,1593.639s11.7.418,20.734,3.387a49.694,49.694,0,0,1,15.4,8.49s14.038,10.381,22.65,23.122,4.048,12.2,12.034,26.9-5.832,44.971-5.832,44.971-6.919,13.421-14.132,24.539-10.676,11.007-14.72,19.935a34.934,34.934,0,0,0-2.819,17.52,203.851,203.851,0,0,1,2.819,30.324c0,14.371-3.182,14.6-2.819,27.159s2.854,12.8,4.27,23.095a144.029,144.029,0,0,1,1.391,18.07l-3.5,21.6v-21.917s.742-5.925-2.156-15.371-7.076-9.254-9.434-22.414,1.361-16.942,0-30.226-1.448-12.26-4.551-18.77-7.862-7.269-7.862-7.269-4.7-2.379-7.833-4.285a32.193,32.193,0,0,1-3.966-2.655,12.189,12.189,0,0,1,2.094-8.109l8.358,2.884s3.688,1.162,8.407-2.151,11.455-11.664,11.455-11.664l13.263-16.753,10.191-13.123s5.083-7.452,7.12-14.1,4.43-17.435,4.43-17.435l-6.2-28.709Z" transform="translate(-2208.284 -858.98)" fill="#13111d" stroke="#13111d" stroke-width="1"/><path d="M2675.741,1751.169l-3.853.836-7.772,14.44s5.131-2.252,7.732-5.907S2675.741,1751.169,2675.741,1751.169Z" transform="translate(-2242.382 -792.974)" fill="#e0c5a7" stroke="#e0c5a7" stroke-width="1"/><path d="M2675.317,1750.063l-5.047,1.611-7.088,14.82" transform="translate(-2241.712 -792.674)" fill="none" stroke="#f4e4c4" stroke-width="1"/><path d="M.065,0s-.67,8.172,2.3,14.218,9.57,9.968,9.57,9.968" transform="matrix(0.891, -0.454, 0.454, 0.891, 439.85, 1002.533)" fill="none" stroke="#c46a3d" stroke-width="1"/><path d="M472.794,1086.292l3.083,1.285s12.991,2.387,21.85,3.183,13.588,0,13.588,0,5.639,2.094,8.722,3.254l.459.173" fill="none" stroke="#e0c5a7" stroke-width="1"/></g><path d="M13,2A38.433,38.433,0,0,0,5.986,0,20.062,20.062,0,0,0,0,0" transform="translate(313.5 930.5)" fill="none" stroke="#f4e4c4" stroke-width="1"/></g></svg>