<svg xmlns="http://www.w3.org/2000/svg" width="439.472" height="514.84" viewBox="0 0 439.472 514.84"><circle cx="209.5" cy="209.5" r="209.5" transform="translate(0 77.87)" fill="#e0c5a7"/><g transform="translate(27.622)"><line y2="300.501" transform="translate(279.623 214.339)" fill="none" stroke="#c46a3d" stroke-width="15"/><line x2="100.167" y2="265.721" transform="translate(304.665 159.155)" fill="none" stroke="#c46a3d" stroke-width="15"/><line x2="75.125" y2="18.086" transform="translate(279.623 274.161)" fill="none" stroke="#c46a3d" stroke-width="15"/><line x1="111.76" y2="246.707" transform="translate(248.089 36.729)" fill="none" stroke="#c46a3d" stroke-width="15"/><g transform="translate(124.377 43.87)" fill="#fff" stroke="#707070" stroke-width="1"><ellipse cx="25.5" cy="34" rx="25.5" ry="34" stroke="none"/><ellipse cx="25.5" cy="34" rx="25" ry="33.5" fill="none"/></g><g transform="translate(93.202 297.812)"><path d="M0,0V184.1" transform="translate(0)" fill="none" stroke="#c46a3d" stroke-width="10"/><path d="M-.011-19.3l.005,94.741" transform="translate(82.087 108.662)" fill="none" stroke="#c46a3d" stroke-width="10"/><line x1="82.081" transform="translate(0 152.569)" fill="none" stroke="#c46a3d" stroke-width="10"/></g><path d="M23.087-70.059c19.477-1.855,54.664,32.45,54.664,32.45a7.42,7.42,0,0,1,7.42,7.42V-1.9a7.42,7.42,0,0,1-7.42,7.42C18.989,5.519,24.1,6.742,10.879-1.9S-.157-30.189-.157-30.189C-.157-34.287,3.61-68.2,23.087-70.059Z" transform="translate(81.069 301.8)" fill="#fff"/><path d="M-1139.654,4494.98s-7.83,18.821-9.012,36.353,3.241,39.36,3.241,39.36l-69.388,1.551s6.891-22.615,6.139-38.342-7.644-31.7-7.644-31.7l1.5-14.749,37.021-17.457h29.8Z" transform="translate(1325.834 -4328.698)" fill="#8a7785"/><path d="M-1236.025,4427.1a126.737,126.737,0,0,0-21.364,4.578c-9.537,3.179-9.4.933-16.786,8.139s-10.914,23.761-17.018,41.819-11.137,31.3-8.428,37.323,32.058,6.315,32.058,6.315h41.2v-9.156l-47.815-9.665,16.786-42.274,35.607-17.749,22.89-2.543,9.734,14.272s20.166,40.032,29.433,43.207,40.684-27.332,40.684-27.332l-3.486-9.242-30.077,14.192-21.2-35.1s-4.178-8.3-10.234-10.709-28.076-6.077-28.076-6.077-5.711-9.312-11.052-11.983S-1236.025,4427.1-1236.025,4427.1Z" transform="translate(1370.91 -4299.095)" fill="#8a7785"/><g transform="translate(258.876 138.479)"><path d="M3.111,0,0,3.212,17.688,22.267l1.16-.964Z" transform="translate(25.201 7.087) rotate(100)" fill="#c46a3d"/><path d="M9.813,6.622S9.578,3.311,7.851,2.207s-2.965.533-4.948,0S.748-.417.513.074A33.875,33.875,0,0,0,0,4.254a4.609,4.609,0,0,0,1.45,3.327C3.009,9.075,6.741,9.8,6.741,9.8Z" transform="translate(32.574 1.702) rotate(100)" fill="#e0c5a7"/></g><g transform="translate(252.735 176.645) rotate(-122)"><path d="M11.612,3.336a32.968,32.968,0,0,0,1.727,2.873A23.964,23.964,0,0,1,14.6,8.994s1.612,4.925.938,7.358a15.12,15.12,0,0,1-1.982,4.266s-1.386,2.077-2.063,2.242-.645-1.583-.645-1.583-.674,1.93-1.8,1.9a6.4,6.4,0,0,1-2.77-1.411,1.347,1.347,0,0,1-.885-.115A18.6,18.6,0,0,1,3.38,19.857a1.645,1.645,0,0,1-1.149-.639,6.175,6.175,0,0,1-.794-1.838S1.1,16.788.674,15.936A5.289,5.289,0,0,1,.064,14.6a4.391,4.391,0,0,1,.343-2.553A12.255,12.255,0,0,1,.674,8.423C1.122,6.041,2.2,2.516,2.2,2.516V.306A17.22,17.22,0,0,1,5.4,0a11.844,11.844,0,0,1,3.849.3,8.448,8.448,0,0,1,2.363,1.6S11.18,2.26,11.612,3.336Z" transform="translate(0 0)" fill="#f4e4c4"/><path d="M11.612,3.336a32.968,32.968,0,0,0,1.727,2.873A23.964,23.964,0,0,1,14.6,8.994s1.612,4.925.938,7.358a15.12,15.12,0,0,1-1.982,4.266s-1.386,2.077-2.063,2.242-.645-1.583-.645-1.583-.674,1.93-1.8,1.9a6.4,6.4,0,0,1-2.77-1.411,1.347,1.347,0,0,1-.885-.115A18.6,18.6,0,0,1,3.38,19.857a1.645,1.645,0,0,1-1.149-.639,6.175,6.175,0,0,1-.794-1.838S1.1,16.788.674,15.936A5.289,5.289,0,0,1,.064,14.6a4.391,4.391,0,0,1,.343-2.553A12.255,12.255,0,0,1,.674,8.423C1.122,6.041,2.2,2.516,2.2,2.516V.306A17.22,17.22,0,0,1,5.4,0a11.844,11.844,0,0,1,3.849.3,8.448,8.448,0,0,1,2.363,1.6S11.18,2.26,11.612,3.336Z" transform="translate(0 0)" fill="#f4e4c4"/><path d="M2,0l.15,2.381-1,3.684A21.159,21.159,0,0,0,.466,9.024,20.811,20.811,0,0,0,.284,12.04a7.012,7.012,0,0,0-.211,2.555A3.723,3.723,0,0,0,1.616,16.51a11.635,11.635,0,0,0,3.946.744c.744-.045,1.15-1.376,1.15-1.376l.752-2.769.424-1.952s.059-.412-.17-.509-.747.119-.747.119A7.1,7.1,0,0,0,5.9,12.338a9.493,9.493,0,0,0-.643,1.977,3.06,3.06,0,0,0-.981-.492A3.79,3.79,0,0,0,2.864,13.6a2.993,2.993,0,0,0-1.12.221" transform="translate(0.072 0.213)" fill="none" stroke="#707070" stroke-width="0.5"/><path d="M2.843,1.883a3.565,3.565,0,0,0-.8-1.241A3.129,3.129,0,0,0,.85.121L0,0" transform="translate(1.74 12.197)" fill="none" stroke="#707070" stroke-width="0.5"/><path d="M0,4.146s.4.873,1,2,.811,2.326,1.609,2.621a9.733,9.733,0,0,0,2.22,0c1.036-.03,2.307.2,2.619-.685A29.667,29.667,0,0,0,8.08,4.259,15,15,0,0,0,8.68.9C8.619-.167,7.835.011,7.835.011" transform="translate(0.226 10.914)" fill="none" stroke="#707070" stroke-width="0.5"/><path d="M.56,1.937A3.3,3.3,0,0,1,0,0" transform="matrix(0.978, 0.208, -0.208, 0.978, 9.57, 9.659)" fill="none" stroke="#707070" stroke-width="0.5"/><path d="M0,8.262s1.738,1.791,2.329,1.895S3.394,9.638,4.414,9.04s1.744-.753,2.041-1.433a39.292,39.292,0,0,0,.308-3.925c.117-1.433.356-1.9.375-2.81S6.921-.044,6.516.027s-1,1.129-1,1.129" transform="translate(3.38 11.609)" fill="none" stroke="#707070" stroke-width="0.5"/><path d="M0,19.463a3.958,3.958,0,0,0,.208,1.388c.217.369.729,0,.729,0l1.717-1.978A29.539,29.539,0,0,0,4.632,14.71a6.929,6.929,0,0,0,0-3.105A24.153,24.153,0,0,0,3.574,6.748a20.414,20.414,0,0,0-2.29-4.406A4.586,4.586,0,0,1,.659,1.075,3.107,3.107,0,0,1,.659,0" transform="translate(10.883 1.874)" fill="none" stroke="#707070" stroke-width="0.5"/><path d="M0,5.159A8.826,8.826,0,0,0,1.055,2.7,9.054,9.054,0,0,0,1.182,0" transform="translate(9.357 4.408) rotate(7)" fill="none" stroke="#707070" stroke-width="0.5"/><path d="M0,6.26l1.231.735a3.782,3.782,0,0,0,1.593.7c.689.029,1.37-1.145,1.37-1.145L5.306,3.741,6.589,1.57S7.131.4,6.831.106s-1.2.117-1.2.117a4.661,4.661,0,0,0-1,.966,8.255,8.255,0,0,0-.817,1.438" transform="translate(6.272 15.517)" fill="none" stroke="#707070" stroke-width="0.5"/></g><path d="M-882.45,4508.578l-.624-1.294.989-.636a2.511,2.511,0,0,0,1.022.369,12.572,12.572,0,0,0,1.76.113l-2.356,1.221Z" transform="translate(1142.027 -4348.353)" fill="#c46a3d"/><path d="M-1138.216,4419.692s-1.607,2.931-7.535,2.931-16.177-2.931-16.177-2.931a19.67,19.67,0,0,0,2.746-7.526,56.123,56.123,0,0,0,.205-11.021,42.657,42.657,0,0,0,8.765,6.752c4.347,2.266,12.328,1.967,12.328,1.967Z" transform="translate(1296.667 -4291.774)" fill="#f4e4c4"/><path d="M-1155.613,4400.983a36.5,36.5,0,0,0,5.487,6.859c2.782,2.456,5.285,3.32,9.167,3.679a10.3,10.3,0,0,0,6.485-1.5,42.972,42.972,0,0,1-10.476-2.931A67.156,67.156,0,0,1-1155.613,4400.983Z" transform="translate(1293.281 -4291.688)" fill="#e0c5a7"/><path d="M-1184.96,4289.6c.587,11.739-.445,11.956,5.393,21.558s15.26,15.26,18.247,16.916,16.578,2.648,19.317-2.047,6.387-7.452,9.74-22.539,4.63-23.4-1.914-36.545-11.158-16.043-24.26-16.043-16.919,3.612-23.477,13.3S-1185.547,4277.862-1184.96,4289.6Z" transform="translate(1309.639 -4211.203)" fill="#f4e4c4"/><g transform="translate(103.182 241.834)"><path d="M-1097.189,4686.79s7.63,25.057,12.456,47.254,5.525,29.634,6.848,41.537a95.366,95.366,0,0,1,0,21.37l-4.41,103.242,6.26,15.26s9.852,7.833,9,10.206-12.912,0-12.912,0l-9.179-12.554v-12.912s-9.2-28.149-11.558-47.258a159.332,159.332,0,0,1,0-36.478l2.847-10.173a48.177,48.177,0,0,1-5.2-18.781c-.182-4-8.234-25.042-8.234-25.042l-7.809-19.956-6.777-23.367Z" transform="translate(1174.14 -4686.79)" fill="#13111d" stroke="#707070" stroke-width="1"/><path d="M-1221.838,4686.79s-7.675,17.405-8.127,31,10.836,26.788,10.836,26.788,48.459,46.954,48.375,53.464-8.431,21-13.225,41.66-5.653,43.631-5.653,43.631l-2.944,9.932,8.6,10.581s12.4,9.588,13.225,5.29-9.919-22.483-9.919-22.483,35.584-73.973,37.692-88.61S-1180.673,4722-1180.673,4722l27.461-35.208Z" transform="translate(1229.978 -4686.79)" fill="#13111d"/></g><path d="M-1099.575,4875.685s13.695-27.781,13.695-39.128-3.913-17.607-13.695-36.389-23.477-37.955-23.477-37.955" transform="translate(1276.283 -4485.866)" fill="none" stroke="#707070" stroke-width="2"/><path d="M-1199.706,4621.218l19.1,3.647" transform="translate(1316.926 -4409.792)" fill="none" stroke="#707070" stroke-width="1"/><path d="M-1204.426,4653.039h24.725" transform="translate(1319.457 -4426.856)" fill="none" stroke="#707070" stroke-width="1"/><path d="M-1131.9,4643.667s-5.415,3.264-6.859,3.492-4.6-.562-7.67-.562a14.832,14.832,0,0,0-4.614.562v-4.8h20.017Z" transform="translate(1290.83 -4421.128)" fill="#f4e4c4"/><path d="M-1151.109,4645.9v3.372" transform="translate(1290.865 -4423.028)" fill="none" stroke="#707070" stroke-width="1"/><path d="M-1165.292,4603.293c3.271,2.526,8.294,3.706,15.382,4.117s10.762-.235,16.086-2.733,5.262-6.458,2.8-8.808-5.605-4.146-11.295-2.974-4.535,3.642-9.888,4.523-9.814-1.468-13.086,0S-1168.563,4600.767-1165.292,4603.293Z" transform="translate(1300.63 -4383.74)" fill="#fff" stroke="#fff" stroke-width="1"/><ellipse cx="2" cy="1" rx="2" ry="1" transform="translate(158.378 210.87)" fill="#e0c5a7"/><ellipse cx="3" cy="1" rx="3" ry="1" transform="translate(162.378 215.87)" fill="#ff833d"/><path d="M3.246,0C5.039,0,6.492.528,6.492,1.18s-1.453,1.18-3.246,1.18S0,1.832,0,1.18,1.453,0,3.246,0Z" transform="translate(156.038 219.209)" fill="#c46a3d"/><path d="M-1156.624,4248.39a89.649,89.649,0,0,1-9.872,11.332c-5.995,5.821-8.564,5.1-14.107,11.953s-6.179,22.506-6.179,22.506l-4.025,29.969s-2.295-52.028-2.295-58.516a37.6,37.6,0,0,1,4.434-17.244,32.353,32.353,0,0,1,10.839-10.346c6.826-3.726,16.466-4.559,16.466-4.559s12.26-.192,20.115,6.706,8.647,8.861,10.495,19.531c1.339,7.735-3.035,58.255-4.678,64.979-.582,2.385-.7-30.519-.7-30.519s3.764-15.655,1.3-22.506-4.318-7.225-9.329-11.953S-1156.624,4248.39-1156.624,4248.39Z" transform="translate(1313.384 -4200.473)" fill="#13111d"/><path d="M15.127,5.015,14.464.152a47.272,47.272,0,0,0-7.431,0A26.04,26.04,0,0,0,0,2.12V7.229l8.041-1.7Z" transform="matrix(0.996, -0.087, 0.087, 0.996, 136.931, 29.5)" fill="#ff833d"/><path d="M-1167.063,4193.479l6.2-4.981s4.442-4.332,5.348-6.21,2.545-5.491,0-9.588-6.963-5.886-10.178-6.8-11.281-.686-14.49,0a57.67,57.67,0,0,0-11.2,3.782c-2.5,1.3-7.732,4.843-10.363,9.156s0,9.66,0,9.66a17.009,17.009,0,0,0,8.865,7.456,26.113,26.113,0,0,0,11.587,1,23.475,23.475,0,0,1,6.458-2.76A33.188,33.188,0,0,1-1167.063,4193.479Z" transform="translate(1318.647 -4165.298)" fill="#13111d"/><g transform="translate(0 395.581)"><path d="M-1439.609,5046.752l8.441,21.037,5.064-.52-9.052-23.06Z" transform="translate(1445.578 -5032.208)" fill="#c46a3d"/><path d="M-1441.966,5030.33s2.045-3.256.779-5.249-4.383-1.04-5.844-2.728,0-4.025,0-4.025-3.214.682-4.285,2.857a8.861,8.861,0,0,0-1.039,5.973c.325,2.467.487,2.889,1.948,4.285a5.994,5.994,0,0,0,3.9,1.3Z" transform="translate(1452.48 -5018.328)" fill="#8a7785"/><line x1="7.42" y2="26.897" transform="translate(55.639 7.036)" fill="none" stroke="#e0c5a7" stroke-width="3"/><line y2="26.897" transform="translate(36.162 7.036)" fill="none" stroke="#ff833d" stroke-width="5"/><line y1="30.607" x2="22.259" transform="translate(50.538 3.326)" fill="none" stroke="#13111d" stroke-width="2"/><path d="M1.147,0H45.666a2.782,2.782,0,0,1,2.782,2.782l2.058,54.257c0,1.537-.522,2.782-2.058,2.782H-.972c-1.537,0-2.078-1.246-2.078-2.782L-1.635,2.782A2.782,2.782,0,0,1,1.147,0Z" transform="translate(12.524 33.701)" fill="#474252"/><path d="M-1383.178,5091.5a51.8,51.8,0,0,1-9.09,17.111c-6.363,7.5-11.134,8.016-19.089,8.016s-12.466-7.662-14.284-12.466a74.925,74.925,0,0,1-2.93-12.661" transform="translate(1441.514 -5050.612)" fill="none" stroke="#fafafa" stroke-width="2"/><line x1="45.91" transform="translate(12.512 39.034)" fill="none" stroke="#8a7785" stroke-width="1"/></g></g></svg>